<svg width="927" height="125" viewBox="0 0 927 125" fill="none" xmlns="http://www.w3.org/2000/svg">
<path d="M42.25 17.25C53.35 17.25 63.05 19.5 71.35 24C79.75 28.4 86.2 34.6 90.7 42.6C95.2 50.6 97.45 59.75 97.45 70.05C97.45 80.25 95.15 89.35 90.55 97.35C86.05 105.35 79.6 111.65 71.2 116.25C62.9 120.75 53.25 123 42.25 123H0.4V17.25H42.25ZM40 97.05C48.6 97.05 55.35 94.7 60.25 90C65.15 85.3 67.6 78.65 67.6 70.05C67.6 61.35 65.15 54.65 60.25 49.95C55.35 45.15 48.6 42.75 40 42.75H29.8V97.05H40ZM125.553 31.05C120.353 31.05 116.153 29.65 112.953 26.85C109.853 23.95 108.303 20.35 108.303 16.05C108.303 11.65 109.853 8 112.953 5.1C116.153 2.19999 120.353 0.749991 125.553 0.749991C130.653 0.749991 134.753 2.19999 137.853 5.1C141.053 8 142.653 11.65 142.653 16.05C142.653 20.35 141.053 23.95 137.853 26.85C134.753 29.65 130.653 31.05 125.553 31.05ZM140.103 38.85V123H110.703V38.85H140.103ZM186.245 12V123H156.845V12H186.245ZM312.938 38.1C323.538 38.1 331.838 41.3 337.838 47.7C343.938 54.1 346.988 62.85 346.988 73.95V123H317.588V77.85C317.588 73.35 316.338 69.85 313.838 67.35C311.338 64.85 307.938 63.6 303.638 63.6C299.338 63.6 295.938 64.85 293.438 67.35C290.938 69.85 289.688 73.35 289.688 77.85V123H260.288V77.85C260.288 73.35 259.038 69.85 256.538 67.35C254.138 64.85 250.788 63.6 246.488 63.6C242.088 63.6 238.638 64.85 236.138 67.35C233.638 69.85 232.388 73.35 232.388 77.85V123H202.988V38.85H232.388V49.95C234.988 46.35 238.338 43.5 242.438 41.4C246.638 39.2 251.438 38.1 256.838 38.1C263.038 38.1 268.538 39.45 273.338 42.15C278.238 44.85 282.088 48.65 284.888 53.55C287.888 48.95 291.838 45.25 296.738 42.45C301.638 39.55 307.038 38.1 312.938 38.1ZM377.945 31.05C372.745 31.05 368.545 29.65 365.345 26.85C362.245 23.95 360.695 20.35 360.695 16.05C360.695 11.65 362.245 8 365.345 5.1C368.545 2.19999 372.745 0.749991 377.945 0.749991C383.045 0.749991 387.145 2.19999 390.245 5.1C393.445 8 395.045 11.65 395.045 16.05C395.045 20.35 393.445 23.95 390.245 26.85C387.145 29.65 383.045 31.05 377.945 31.05ZM392.495 38.85V123H363.095V38.85H392.495ZM467.349 17.25V123H437.949V17.25H467.349ZM519.941 124.05C512.341 124.05 505.541 122.8 499.541 120.3C493.641 117.7 488.941 114.2 485.441 109.8C482.041 105.3 480.141 100.25 479.741 94.65H508.241C508.641 97.35 509.891 99.45 511.991 100.95C514.091 102.45 516.691 103.2 519.791 103.2C522.191 103.2 524.091 102.7 525.491 101.7C526.891 100.7 527.591 99.4 527.591 97.8C527.591 95.7 526.441 94.15 524.141 93.15C521.841 92.15 518.041 91.05 512.741 89.85C506.741 88.65 501.741 87.3 497.741 85.8C493.741 84.3 490.241 81.85 487.241 78.45C484.341 75.05 482.891 70.45 482.891 64.65C482.891 59.65 484.241 55.15 486.941 51.15C489.641 47.05 493.591 43.8 498.791 41.4C504.091 39 510.441 37.8 517.841 37.8C528.841 37.8 537.491 40.5 543.791 45.9C550.091 51.3 553.741 58.4 554.741 67.2H528.191C527.691 64.5 526.491 62.45 524.591 61.05C522.791 59.55 520.341 58.8 517.241 58.8C514.841 58.8 512.991 59.25 511.691 60.15C510.491 61.05 509.891 62.3 509.891 63.9C509.891 65.9 511.041 67.45 513.341 68.55C515.641 69.55 519.341 70.6 524.441 71.7C530.541 73 535.591 74.45 539.591 76.05C543.691 77.65 547.241 80.25 550.241 83.85C553.341 87.35 554.891 92.15 554.891 98.25C554.891 103.15 553.441 107.55 550.541 111.45C547.741 115.35 543.691 118.45 538.391 120.75C533.191 122.95 527.041 124.05 519.941 124.05ZM624.695 38.1C634.295 38.1 641.895 41.35 647.495 47.85C653.195 54.25 656.045 62.95 656.045 73.95V123H626.645V77.85C626.645 73.05 625.395 69.3 622.895 66.6C620.395 63.8 617.045 62.4 612.845 62.4C608.445 62.4 604.995 63.8 602.495 66.6C599.995 69.3 598.745 73.05 598.745 77.85V123H569.345V12H598.745V50.85C601.345 47.05 604.845 44 609.245 41.7C613.745 39.3 618.895 38.1 624.695 38.1ZM667.377 80.85C667.377 72.15 668.927 64.55 672.027 58.05C675.227 51.55 679.527 46.55 684.927 43.05C690.427 39.55 696.527 37.8 703.227 37.8C709.027 37.8 714.027 38.95 718.227 41.25C722.427 43.55 725.677 46.65 727.977 50.55V38.85H757.377V123H727.977V111.3C725.677 115.2 722.377 118.3 718.077 120.6C713.877 122.9 708.927 124.05 703.227 124.05C696.527 124.05 690.427 122.3 684.927 118.8C679.527 115.3 675.227 110.3 672.027 103.8C668.927 97.2 667.377 89.55 667.377 80.85ZM727.977 80.85C727.977 75.45 726.477 71.2 723.477 68.1C720.577 65 716.977 63.45 712.677 63.45C708.277 63.45 704.627 65 701.727 68.1C698.827 71.1 697.377 75.35 697.377 80.85C697.377 86.25 698.827 90.55 701.727 93.75C704.627 96.85 708.277 98.4 712.677 98.4C716.977 98.4 720.577 96.85 723.477 93.75C726.477 90.65 727.977 86.35 727.977 80.85ZM803.53 53.7C806.83 48.9 810.83 45.1 815.53 42.3C820.23 39.5 825.28 38.1 830.68 38.1V69.45H822.43C816.03 69.45 811.28 70.7 808.18 73.2C805.08 75.7 803.53 80.05 803.53 86.25V123H774.13V38.85H803.53V53.7ZM836.42 80.85C836.42 72.15 837.97 64.55 841.07 58.05C844.27 51.55 848.57 46.55 853.97 43.05C859.47 39.55 865.57 37.8 872.27 37.8C878.07 37.8 883.07 38.95 887.27 41.25C891.47 43.55 894.72 46.65 897.02 50.55V38.85H926.42V123H897.02V111.3C894.72 115.2 891.42 118.3 887.12 120.6C882.92 122.9 877.97 124.05 872.27 124.05C865.57 124.05 859.47 122.3 853.97 118.8C848.57 115.3 844.27 110.3 841.07 103.8C837.97 97.2 836.42 89.55 836.42 80.85ZM897.02 80.85C897.02 75.45 895.52 71.2 892.52 68.1C889.62 65 886.02 63.45 881.72 63.45C877.32 63.45 873.67 65 870.77 68.1C867.87 71.1 866.42 75.35 866.42 80.85C866.42 86.25 867.87 90.55 870.77 93.75C873.67 96.85 877.32 98.4 881.72 98.4C886.02 98.4 889.62 96.85 892.52 93.75C895.52 90.65 897.02 86.35 897.02 80.85Z" fill="white"/>
</svg>
